<mxfile host="app.diagrams.net" modified="2022-02-06T13:24:35.273Z" agent="5.0 (Windows NT 10.0; Win64; x64) AppleWebKit/537.36 (KHTML, like Gecko) Chrome/80.0.3987.163 Safari/537.36" etag="06XcTqqN_65ZEwaFim7e" version="16.5.3" type="github">
  <diagram id="C5RBs43oDa-KdzZeNtuy" name="Page-1">
    <mxGraphModel dx="1038" dy="540" grid="1" gridSize="10" guides="1" tooltips="1" connect="1" arrows="1" fold="1" page="1" pageScale="1" pageWidth="827" pageHeight="1169" math="0" shadow="0">
      <root>
        <mxCell id="WIyWlLk6GJQsqaUBKTNV-0" />
        <mxCell id="WIyWlLk6GJQsqaUBKTNV-1" parent="WIyWlLk6GJQsqaUBKTNV-0" />
        <mxCell id="GrZb4gvo8PiQvZOxw_Kl-0" value="" style="edgeStyle=orthogonalEdgeStyle;rounded=0;orthogonalLoop=1;jettySize=auto;html=1;" parent="WIyWlLk6GJQsqaUBKTNV-1" source="GrZb4gvo8PiQvZOxw_Kl-2" target="GrZb4gvo8PiQvZOxw_Kl-3" edge="1">
          <mxGeometry relative="1" as="geometry" />
        </mxCell>
        <mxCell id="GrZb4gvo8PiQvZOxw_Kl-1" value="" style="edgeStyle=orthogonalEdgeStyle;rounded=0;orthogonalLoop=1;jettySize=auto;html=1;" parent="WIyWlLk6GJQsqaUBKTNV-1" source="GrZb4gvo8PiQvZOxw_Kl-2" target="GrZb4gvo8PiQvZOxw_Kl-7" edge="1">
          <mxGeometry relative="1" as="geometry" />
        </mxCell>
        <mxCell id="GrZb4gvo8PiQvZOxw_Kl-2" value="DispatcherHandler.&lt;span style=&quot;background-color: rgb(255 , 255 , 255) ; font-family: &amp;#34;consolas&amp;#34; ; font-size: 8.4pt&quot;&gt;handle(&lt;br&gt;&lt;/span&gt;&lt;span style=&quot;background-color: rgb(255 , 255 , 255) ; font-family: &amp;#34;consolas&amp;#34; ; font-size: 8.4pt&quot;&gt;ServerWebExchange exchange)&lt;/span&gt;" style="rounded=0;whiteSpace=wrap;html=1;" parent="WIyWlLk6GJQsqaUBKTNV-1" vertex="1">
          <mxGeometry x="264" y="150" width="170" height="60" as="geometry" />
        </mxCell>
        <mxCell id="GrZb4gvo8PiQvZOxw_Kl-3" value="&lt;pre style=&quot;background-color: rgb(255 , 255 , 255) ; font-family: &amp;#34;consolas&amp;#34; ; font-size: 8.4pt&quot;&gt;initStrategies&lt;/pre&gt;" style="rounded=0;whiteSpace=wrap;html=1;" parent="WIyWlLk6GJQsqaUBKTNV-1" vertex="1">
          <mxGeometry x="519" y="150" width="116" height="60" as="geometry" />
        </mxCell>
        <mxCell id="GrZb4gvo8PiQvZOxw_Kl-4" value="" style="edgeStyle=orthogonalEdgeStyle;rounded=0;orthogonalLoop=1;jettySize=auto;html=1;" parent="WIyWlLk6GJQsqaUBKTNV-1" source="GrZb4gvo8PiQvZOxw_Kl-5" target="GrZb4gvo8PiQvZOxw_Kl-2" edge="1">
          <mxGeometry relative="1" as="geometry" />
        </mxCell>
        <mxCell id="GrZb4gvo8PiQvZOxw_Kl-5" value="HttpWebHandlerAdapter" style="rounded=0;whiteSpace=wrap;html=1;" parent="WIyWlLk6GJQsqaUBKTNV-1" vertex="1">
          <mxGeometry x="261" y="40" width="176" height="60" as="geometry" />
        </mxCell>
        <mxCell id="GrZb4gvo8PiQvZOxw_Kl-6" value="" style="edgeStyle=orthogonalEdgeStyle;rounded=0;orthogonalLoop=1;jettySize=auto;html=1;" parent="WIyWlLk6GJQsqaUBKTNV-1" source="GrZb4gvo8PiQvZOxw_Kl-7" target="GrZb4gvo8PiQvZOxw_Kl-8" edge="1">
          <mxGeometry relative="1" as="geometry" />
        </mxCell>
        <mxCell id="GrZb4gvo8PiQvZOxw_Kl-7" value="&lt;pre style=&quot;background-color: rgb(255 , 255 , 255) ; font-family: &amp;#34;consolas&amp;#34; ; font-size: 8.4pt&quot;&gt;AbstractHandlerMapping&lt;/pre&gt;&lt;pre style=&quot;background-color: rgb(255 , 255 , 255) ; font-family: &amp;#34;consolas&amp;#34; ; font-size: 8.4pt&quot;&gt;.getHandler()&lt;/pre&gt;" style="rounded=0;whiteSpace=wrap;html=1;" parent="WIyWlLk6GJQsqaUBKTNV-1" vertex="1">
          <mxGeometry x="262" y="260" width="174" height="60" as="geometry" />
        </mxCell>
        <mxCell id="7GXC4zHPOhcXow-mvOEY-1" value="" style="edgeStyle=orthogonalEdgeStyle;rounded=0;orthogonalLoop=1;jettySize=auto;html=1;" edge="1" parent="WIyWlLk6GJQsqaUBKTNV-1" source="GrZb4gvo8PiQvZOxw_Kl-8" target="7GXC4zHPOhcXow-mvOEY-0">
          <mxGeometry relative="1" as="geometry" />
        </mxCell>
        <mxCell id="GrZb4gvo8PiQvZOxw_Kl-8" value="&lt;pre style=&quot;background-color: rgb(255 , 255 , 255) ; font-family: &amp;#34;consolas&amp;#34; ; font-size: 8.4pt&quot;&gt;&lt;pre style=&quot;font-family: &amp;#34;consolas&amp;#34; ; font-size: 8.4pt&quot;&gt;&lt;pre style=&quot;font-family: &amp;#34;consolas&amp;#34; ; font-size: 8.4pt&quot;&gt;RoutePredicateHandlerMapping&lt;/pre&gt;&lt;pre style=&quot;font-family: &amp;#34;consolas&amp;#34; ; font-size: 8.4pt&quot;&gt;.getHandlerInternal()&lt;/pre&gt;&lt;/pre&gt;&lt;/pre&gt;" style="rounded=0;whiteSpace=wrap;html=1;" parent="WIyWlLk6GJQsqaUBKTNV-1" vertex="1">
          <mxGeometry x="253" y="362" width="192" height="60" as="geometry" />
        </mxCell>
        <mxCell id="7GXC4zHPOhcXow-mvOEY-3" value="" style="edgeStyle=orthogonalEdgeStyle;rounded=0;orthogonalLoop=1;jettySize=auto;html=1;" edge="1" parent="WIyWlLk6GJQsqaUBKTNV-1" source="7GXC4zHPOhcXow-mvOEY-0" target="7GXC4zHPOhcXow-mvOEY-2">
          <mxGeometry relative="1" as="geometry" />
        </mxCell>
        <mxCell id="7GXC4zHPOhcXow-mvOEY-0" value="&lt;pre style=&quot;background-color: rgb(255 , 255 , 255) ; font-family: &amp;#34;consolas&amp;#34; ; font-size: 8.4pt&quot;&gt;&lt;pre style=&quot;font-family: &amp;#34;consolas&amp;#34; ; font-size: 8.4pt&quot;&gt;&lt;pre style=&quot;font-family: &amp;#34;consolas&amp;#34; ; font-size: 8.4pt&quot;&gt;&lt;pre style=&quot;font-family: &amp;#34;consolas&amp;#34; ; font-size: 8.4pt&quot;&gt;getHandlerInternal()&lt;/pre&gt;&lt;/pre&gt;&lt;/pre&gt;&lt;/pre&gt;" style="rounded=0;whiteSpace=wrap;html=1;" vertex="1" parent="WIyWlLk6GJQsqaUBKTNV-1">
          <mxGeometry x="519" y="362" width="174" height="60" as="geometry" />
        </mxCell>
        <mxCell id="7GXC4zHPOhcXow-mvOEY-8" value="" style="edgeStyle=orthogonalEdgeStyle;rounded=0;orthogonalLoop=1;jettySize=auto;html=1;" edge="1" parent="WIyWlLk6GJQsqaUBKTNV-1" source="7GXC4zHPOhcXow-mvOEY-2" target="7GXC4zHPOhcXow-mvOEY-7">
          <mxGeometry relative="1" as="geometry" />
        </mxCell>
        <mxCell id="7GXC4zHPOhcXow-mvOEY-20" value="" style="edgeStyle=orthogonalEdgeStyle;rounded=0;orthogonalLoop=1;jettySize=auto;html=1;" edge="1" parent="WIyWlLk6GJQsqaUBKTNV-1" source="7GXC4zHPOhcXow-mvOEY-2" target="7GXC4zHPOhcXow-mvOEY-19">
          <mxGeometry relative="1" as="geometry" />
        </mxCell>
        <mxCell id="7GXC4zHPOhcXow-mvOEY-2" value="&lt;pre style=&quot;background-color: rgb(255 , 255 , 255) ; font-family: &amp;#34;consolas&amp;#34; ; font-size: 8.4pt&quot;&gt;&lt;pre style=&quot;font-family: &amp;#34;consolas&amp;#34; ; font-size: 8.4pt&quot;&gt;&lt;pre style=&quot;font-family: &amp;#34;consolas&amp;#34; ; font-size: 8.4pt&quot;&gt;&lt;pre style=&quot;font-family: &amp;#34;consolas&amp;#34; ; font-size: 8.4pt&quot;&gt;&lt;pre style=&quot;font-size: 8.4pt ; font-family: &amp;#34;consolas&amp;#34;&quot;&gt;lookupRoute()&lt;/pre&gt;&lt;/pre&gt;&lt;/pre&gt;&lt;/pre&gt;&lt;/pre&gt;" style="rounded=0;whiteSpace=wrap;html=1;" vertex="1" parent="WIyWlLk6GJQsqaUBKTNV-1">
          <mxGeometry x="519" y="502" width="174" height="60" as="geometry" />
        </mxCell>
        <mxCell id="7GXC4zHPOhcXow-mvOEY-11" value="" style="edgeStyle=orthogonalEdgeStyle;rounded=0;orthogonalLoop=1;jettySize=auto;html=1;" edge="1" parent="WIyWlLk6GJQsqaUBKTNV-1" source="7GXC4zHPOhcXow-mvOEY-7" target="7GXC4zHPOhcXow-mvOEY-10">
          <mxGeometry relative="1" as="geometry" />
        </mxCell>
        <mxCell id="7GXC4zHPOhcXow-mvOEY-7" value="&lt;pre style=&quot;background-color: rgb(255 , 255 , 255) ; font-family: &amp;#34;consolas&amp;#34; ; font-size: 8.4pt&quot;&gt;&lt;pre style=&quot;font-family: &amp;#34;consolas&amp;#34; ; font-size: 8.4pt&quot;&gt;&lt;pre style=&quot;font-family: &amp;#34;consolas&amp;#34; ; font-size: 8.4pt&quot;&gt;&lt;pre style=&quot;font-family: &amp;#34;consolas&amp;#34; ; font-size: 8.4pt&quot;&gt;&lt;pre style=&quot;font-size: 8.4pt ; font-family: &amp;#34;consolas&amp;#34;&quot;&gt;&lt;pre style=&quot;font-family: &amp;#34;consolas&amp;#34; ; font-size: 8.4pt&quot;&gt;RouteLocator&lt;/pre&gt;&lt;/pre&gt;&lt;/pre&gt;&lt;/pre&gt;&lt;/pre&gt;&lt;/pre&gt;" style="rounded=0;whiteSpace=wrap;html=1;" vertex="1" parent="WIyWlLk6GJQsqaUBKTNV-1">
          <mxGeometry x="760" y="502" width="174" height="60" as="geometry" />
        </mxCell>
        <mxCell id="7GXC4zHPOhcXow-mvOEY-14" value="" style="edgeStyle=orthogonalEdgeStyle;rounded=0;orthogonalLoop=1;jettySize=auto;html=1;" edge="1" parent="WIyWlLk6GJQsqaUBKTNV-1" source="7GXC4zHPOhcXow-mvOEY-10" target="7GXC4zHPOhcXow-mvOEY-13">
          <mxGeometry relative="1" as="geometry" />
        </mxCell>
        <mxCell id="7GXC4zHPOhcXow-mvOEY-16" value="" style="edgeStyle=orthogonalEdgeStyle;rounded=0;orthogonalLoop=1;jettySize=auto;html=1;" edge="1" parent="WIyWlLk6GJQsqaUBKTNV-1" source="7GXC4zHPOhcXow-mvOEY-10" target="7GXC4zHPOhcXow-mvOEY-15">
          <mxGeometry relative="1" as="geometry" />
        </mxCell>
        <mxCell id="7GXC4zHPOhcXow-mvOEY-10" value="&lt;pre style=&quot;background-color: rgb(255 , 255 , 255) ; font-family: &amp;#34;consolas&amp;#34; ; font-size: 8.4pt&quot;&gt;&lt;pre style=&quot;font-family: &amp;#34;consolas&amp;#34; ; font-size: 8.4pt&quot;&gt;&lt;pre style=&quot;font-family: &amp;#34;consolas&amp;#34; ; font-size: 8.4pt&quot;&gt;&lt;pre style=&quot;font-family: &amp;#34;consolas&amp;#34; ; font-size: 8.4pt&quot;&gt;&lt;pre style=&quot;font-size: 8.4pt ; font-family: &amp;#34;consolas&amp;#34;&quot;&gt;&lt;pre style=&quot;font-family: &amp;#34;consolas&amp;#34; ; font-size: 8.4pt&quot;&gt;&lt;pre style=&quot;font-family: &amp;#34;consolas&amp;#34; ; font-size: 8.4pt&quot;&gt;RouteDefinitionRouteLocator&lt;/pre&gt;&lt;pre style=&quot;font-family: &amp;#34;consolas&amp;#34; ; font-size: 8.4pt&quot;&gt;.getRoutes()&lt;/pre&gt;&lt;pre style=&quot;font-family: &amp;#34;consolas&amp;#34; ; font-size: 8.4pt&quot;&gt;&lt;pre style=&quot;font-family: &amp;#34;consolas&amp;#34; ; font-size: 8.4pt&quot;&gt;.getRouteDefinitions&lt;/pre&gt;&lt;/pre&gt;&lt;/pre&gt;&lt;/pre&gt;&lt;/pre&gt;&lt;/pre&gt;&lt;/pre&gt;&lt;/pre&gt;" style="rounded=0;html=1;fillColor=default;strokeColor=default;whiteSpace=wrap;" vertex="1" parent="WIyWlLk6GJQsqaUBKTNV-1">
          <mxGeometry x="762" y="642" width="170" height="68" as="geometry" />
        </mxCell>
        <mxCell id="7GXC4zHPOhcXow-mvOEY-13" value="&lt;pre style=&quot;background-color: rgb(255 , 255 , 255) ; font-family: &amp;#34;consolas&amp;#34; ; font-size: 8.4pt&quot;&gt;&lt;pre style=&quot;font-family: &amp;#34;consolas&amp;#34; ; font-size: 8.4pt&quot;&gt;&lt;pre style=&quot;font-family: &amp;#34;consolas&amp;#34; ; font-size: 8.4pt&quot;&gt;&lt;pre style=&quot;font-family: &amp;#34;consolas&amp;#34; ; font-size: 8.4pt&quot;&gt;&lt;pre style=&quot;font-size: 8.4pt ; font-family: &amp;#34;consolas&amp;#34;&quot;&gt;&lt;pre style=&quot;font-family: &amp;#34;consolas&amp;#34; ; font-size: 8.4pt&quot;&gt;&lt;pre style=&quot;font-family: &amp;#34;consolas&amp;#34; ; font-size: 8.4pt&quot;&gt;&lt;pre style=&quot;font-family: &amp;#34;consolas&amp;#34; ; font-size: 8.4pt&quot;&gt;PropertiesRouteDefinitionLocator&lt;/pre&gt;&lt;pre style=&quot;font-family: &amp;#34;consolas&amp;#34; ; font-size: 8.4pt&quot;&gt;&lt;pre style=&quot;font-family: &amp;#34;consolas&amp;#34; ; font-size: 8.4pt&quot;&gt;CompositeRouteDefinitionLocator&lt;/pre&gt;&lt;pre style=&quot;font-family: &amp;#34;consolas&amp;#34; ; font-size: 8.4pt&quot;&gt;&lt;pre style=&quot;font-family: &amp;#34;consolas&amp;#34; ; font-size: 8.4pt&quot;&gt;DiscoveryClientRouteDefinitionLocator&lt;/pre&gt;&lt;pre style=&quot;font-family: &amp;#34;consolas&amp;#34; ; font-size: 8.4pt&quot;&gt;……&lt;/pre&gt;&lt;/pre&gt;&lt;/pre&gt;&lt;/pre&gt;&lt;/pre&gt;&lt;/pre&gt;&lt;/pre&gt;&lt;/pre&gt;&lt;/pre&gt;&lt;/pre&gt;" style="rounded=0;html=1;fillColor=default;strokeColor=default;whiteSpace=wrap;" vertex="1" parent="WIyWlLk6GJQsqaUBKTNV-1">
          <mxGeometry x="1027" y="627" width="253" height="98" as="geometry" />
        </mxCell>
        <mxCell id="7GXC4zHPOhcXow-mvOEY-18" value="" style="edgeStyle=orthogonalEdgeStyle;rounded=0;orthogonalLoop=1;jettySize=auto;html=1;" edge="1" parent="WIyWlLk6GJQsqaUBKTNV-1" source="7GXC4zHPOhcXow-mvOEY-15" target="7GXC4zHPOhcXow-mvOEY-17">
          <mxGeometry relative="1" as="geometry" />
        </mxCell>
        <mxCell id="7GXC4zHPOhcXow-mvOEY-15" value="&lt;pre style=&quot;background-color: rgb(255 , 255 , 255) ; font-family: &amp;#34;consolas&amp;#34; ; font-size: 8.4pt&quot;&gt;&lt;pre style=&quot;font-family: &amp;#34;consolas&amp;#34; ; font-size: 8.4pt&quot;&gt;&lt;pre style=&quot;font-family: &amp;#34;consolas&amp;#34; ; font-size: 8.4pt&quot;&gt;&lt;pre style=&quot;font-family: &amp;#34;consolas&amp;#34; ; font-size: 8.4pt&quot;&gt;&lt;pre style=&quot;font-size: 8.4pt ; font-family: &amp;#34;consolas&amp;#34;&quot;&gt;&lt;pre style=&quot;font-family: &amp;#34;consolas&amp;#34; ; font-size: 8.4pt&quot;&gt;&lt;pre style=&quot;font-family: &amp;#34;consolas&amp;#34; ; font-size: 8.4pt&quot;&gt;&lt;pre style=&quot;font-family: &amp;#34;consolas&amp;#34; ; font-size: 8.4pt&quot;&gt;从配置文件获取路由信息，封装成RouteDefinition&lt;/pre&gt;&lt;pre style=&quot;font-family: &amp;#34;consolas&amp;#34; ; font-size: 8.4pt&quot;&gt;GatewayProperties&lt;/pre&gt;&lt;/pre&gt;&lt;/pre&gt;&lt;/pre&gt;&lt;/pre&gt;&lt;/pre&gt;&lt;/pre&gt;&lt;/pre&gt;" style="rounded=0;html=1;fillColor=default;strokeColor=default;whiteSpace=wrap;" vertex="1" parent="WIyWlLk6GJQsqaUBKTNV-1">
          <mxGeometry x="713.5" y="790" width="267" height="68" as="geometry" />
        </mxCell>
        <mxCell id="7GXC4zHPOhcXow-mvOEY-17" value="&lt;pre style=&quot;background-color: rgb(255 , 255 , 255) ; font-family: &amp;#34;consolas&amp;#34; ; font-size: 8.4pt&quot;&gt;&lt;pre style=&quot;font-family: &amp;#34;consolas&amp;#34; ; font-size: 8.4pt&quot;&gt;&lt;pre style=&quot;font-family: &amp;#34;consolas&amp;#34; ; font-size: 8.4pt&quot;&gt;&lt;pre style=&quot;font-family: &amp;#34;consolas&amp;#34; ; font-size: 8.4pt&quot;&gt;&lt;pre style=&quot;font-size: 8.4pt ; font-family: &amp;#34;consolas&amp;#34;&quot;&gt;&lt;pre style=&quot;font-family: &amp;#34;consolas&amp;#34; ; font-size: 8.4pt&quot;&gt;&lt;pre style=&quot;font-family: &amp;#34;consolas&amp;#34; ; font-size: 8.4pt&quot;&gt;&lt;pre style=&quot;font-family: &amp;#34;consolas&amp;#34; ; font-size: 8.4pt&quot;&gt;&lt;pre style=&quot;font-family: &amp;#34;consolas&amp;#34; ; font-size: 8.4pt&quot;&gt;&lt;span style=&quot;color: #008000 ; font-weight: bold&quot;&gt;spring.cloud.gateway&lt;/span&gt;&lt;/pre&gt;&lt;/pre&gt;&lt;/pre&gt;&lt;/pre&gt;&lt;/pre&gt;&lt;/pre&gt;&lt;/pre&gt;&lt;/pre&gt;&lt;/pre&gt;" style="rounded=0;html=1;fillColor=default;strokeColor=default;whiteSpace=wrap;" vertex="1" parent="WIyWlLk6GJQsqaUBKTNV-1">
          <mxGeometry x="1130" y="794" width="174" height="60" as="geometry" />
        </mxCell>
        <mxCell id="7GXC4zHPOhcXow-mvOEY-24" value="" style="edgeStyle=orthogonalEdgeStyle;rounded=0;orthogonalLoop=1;jettySize=auto;html=1;" edge="1" parent="WIyWlLk6GJQsqaUBKTNV-1" source="7GXC4zHPOhcXow-mvOEY-19" target="7GXC4zHPOhcXow-mvOEY-23">
          <mxGeometry relative="1" as="geometry" />
        </mxCell>
        <mxCell id="7GXC4zHPOhcXow-mvOEY-28" value="" style="edgeStyle=orthogonalEdgeStyle;rounded=0;orthogonalLoop=1;jettySize=auto;html=1;" edge="1" parent="WIyWlLk6GJQsqaUBKTNV-1" source="7GXC4zHPOhcXow-mvOEY-19" target="7GXC4zHPOhcXow-mvOEY-27">
          <mxGeometry relative="1" as="geometry" />
        </mxCell>
        <mxCell id="7GXC4zHPOhcXow-mvOEY-19" value="&lt;pre style=&quot;background-color: rgb(255 , 255 , 255) ; font-family: &amp;#34;consolas&amp;#34; ; font-size: 8.4pt&quot;&gt;&lt;pre style=&quot;font-family: &amp;#34;consolas&amp;#34; ; font-size: 8.4pt&quot;&gt;&lt;pre style=&quot;font-family: &amp;#34;consolas&amp;#34; ; font-size: 8.4pt&quot;&gt;&lt;pre style=&quot;font-family: &amp;#34;consolas&amp;#34; ; font-size: 8.4pt&quot;&gt;&lt;pre style=&quot;font-size: 8.4pt ; font-family: &amp;#34;consolas&amp;#34;&quot;&gt;&lt;pre style=&quot;font-family: &amp;#34;consolas&amp;#34; ; font-size: 8.4pt&quot;&gt;执行过滤器，责任链模式&lt;/pre&gt;&lt;pre style=&quot;font-family: &amp;#34;consolas&amp;#34; ; font-size: 8.4pt&quot;&gt;FilteringWebHandler&lt;/pre&gt;&lt;pre style=&quot;font-family: &amp;#34;consolas&amp;#34; ; font-size: 8.4pt&quot;&gt;&lt;pre style=&quot;font-size: 8.4pt ; font-family: &amp;#34;consolas&amp;#34;&quot;&gt;loadFilters()&lt;/pre&gt;&lt;pre style=&quot;font-size: 8.4pt ; font-family: &amp;#34;consolas&amp;#34;&quot;&gt;handle()&lt;/pre&gt;&lt;/pre&gt;&lt;/pre&gt;&lt;/pre&gt;&lt;/pre&gt;&lt;/pre&gt;&lt;/pre&gt;" style="rounded=0;whiteSpace=wrap;html=1;" vertex="1" parent="WIyWlLk6GJQsqaUBKTNV-1">
          <mxGeometry x="510" y="980" width="183" height="70" as="geometry" />
        </mxCell>
        <mxCell id="7GXC4zHPOhcXow-mvOEY-22" value="&lt;pre style=&quot;background-color: rgb(255 , 255 , 255) ; font-family: &amp;#34;consolas&amp;#34; ; font-size: 8.4pt&quot;&gt;WebHandler&lt;/pre&gt;" style="rounded=0;whiteSpace=wrap;html=1;strokeColor=default;fillColor=default;" vertex="1" parent="WIyWlLk6GJQsqaUBKTNV-1">
          <mxGeometry x="787" y="30" width="120" height="60" as="geometry" />
        </mxCell>
        <mxCell id="7GXC4zHPOhcXow-mvOEY-26" value="" style="edgeStyle=orthogonalEdgeStyle;rounded=0;orthogonalLoop=1;jettySize=auto;html=1;" edge="1" parent="WIyWlLk6GJQsqaUBKTNV-1" source="7GXC4zHPOhcXow-mvOEY-23" target="7GXC4zHPOhcXow-mvOEY-25">
          <mxGeometry relative="1" as="geometry" />
        </mxCell>
        <mxCell id="7GXC4zHPOhcXow-mvOEY-23" value="handle()&lt;br&gt;Route route = &lt;br&gt;(Route)exchange.getRequiredAttribute(ServerWebExchangeUtils.GATEWAY_ROUTE_ATTR);&lt;br&gt;List&amp;lt;GatewayFilter&amp;gt; gatewayFilters = route.getFilters();" style="rounded=0;align=left;whiteSpace=wrap;html=1;" vertex="1" parent="WIyWlLk6GJQsqaUBKTNV-1">
          <mxGeometry x="900" y="965" width="280" height="85" as="geometry" />
        </mxCell>
        <mxCell id="7GXC4zHPOhcXow-mvOEY-25" value="&lt;pre style=&quot;background-color: rgb(255 , 255 , 255) ; font-family: &amp;#34;consolas&amp;#34; ; font-size: 8.4pt&quot;&gt;&lt;pre style=&quot;font-family: &amp;#34;consolas&amp;#34; ; font-size: 8.4pt&quot;&gt;&lt;pre style=&quot;font-family: &amp;#34;consolas&amp;#34; ; font-size: 8.4pt&quot;&gt;&lt;pre style=&quot;font-family: &amp;#34;consolas&amp;#34; ; font-size: 8.4pt&quot;&gt;&lt;pre style=&quot;font-size: 8.4pt ; font-family: &amp;#34;consolas&amp;#34;&quot;&gt;&lt;pre style=&quot;font-family: &amp;#34;consolas&amp;#34; ; font-size: 8.4pt&quot;&gt;&lt;pre style=&quot;font-family: &amp;#34;consolas&amp;#34; ; font-size: 8.4pt&quot;&gt;&lt;pre style=&quot;font-family: &amp;#34;consolas&amp;#34; ; font-size: 8.4pt&quot;&gt;gatewayFilters&lt;/pre&gt;&lt;/pre&gt;&lt;/pre&gt;&lt;/pre&gt;&lt;/pre&gt;&lt;/pre&gt;&lt;/pre&gt;&lt;/pre&gt;" style="rounded=0;whiteSpace=wrap;html=1;" vertex="1" parent="WIyWlLk6GJQsqaUBKTNV-1">
          <mxGeometry x="900" y="1130" width="280" height="85" as="geometry" />
        </mxCell>
        <mxCell id="7GXC4zHPOhcXow-mvOEY-27" value="&lt;pre style=&quot;background-color: rgb(255 , 255 , 255) ; font-family: &amp;#34;consolas&amp;#34; ; font-size: 8.4pt&quot;&gt;&lt;pre style=&quot;font-family: &amp;#34;consolas&amp;#34; ; font-size: 8.4pt&quot;&gt;&lt;pre style=&quot;font-family: &amp;#34;consolas&amp;#34; ; font-size: 8.4pt&quot;&gt;&lt;pre style=&quot;font-family: &amp;#34;consolas&amp;#34; ; font-size: 8.4pt&quot;&gt;&lt;pre style=&quot;font-size: 8.4pt ; font-family: &amp;#34;consolas&amp;#34;&quot;&gt;&lt;pre style=&quot;font-family: &amp;#34;consolas&amp;#34; ; font-size: 8.4pt&quot;&gt;&lt;pre style=&quot;font-family: &amp;#34;consolas&amp;#34; ; font-size: 8.4pt&quot;&gt;OrderedGatewayFilter&lt;/pre&gt;&lt;/pre&gt;&lt;/pre&gt;&lt;/pre&gt;&lt;/pre&gt;&lt;/pre&gt;&lt;/pre&gt;" style="rounded=0;whiteSpace=wrap;html=1;" vertex="1" parent="WIyWlLk6GJQsqaUBKTNV-1">
          <mxGeometry x="510" y="1130" width="183" height="70" as="geometry" />
        </mxCell>
        <mxCell id="7GXC4zHPOhcXow-mvOEY-34" value="" style="edgeStyle=orthogonalEdgeStyle;rounded=0;orthogonalLoop=1;jettySize=auto;html=1;" edge="1" parent="WIyWlLk6GJQsqaUBKTNV-1" source="7GXC4zHPOhcXow-mvOEY-32" target="7GXC4zHPOhcXow-mvOEY-33">
          <mxGeometry relative="1" as="geometry" />
        </mxCell>
        <mxCell id="7GXC4zHPOhcXow-mvOEY-38" value="" style="edgeStyle=orthogonalEdgeStyle;rounded=0;orthogonalLoop=1;jettySize=auto;html=1;" edge="1" parent="WIyWlLk6GJQsqaUBKTNV-1" source="7GXC4zHPOhcXow-mvOEY-32" target="7GXC4zHPOhcXow-mvOEY-37">
          <mxGeometry relative="1" as="geometry" />
        </mxCell>
        <mxCell id="7GXC4zHPOhcXow-mvOEY-32" value="&lt;pre style=&quot;background-color: rgb(255 , 255 , 255) ; font-family: &amp;#34;consolas&amp;#34; ; font-size: 8.4pt&quot;&gt;GlobalFilter&lt;/pre&gt;&lt;pre style=&quot;background-color: rgb(255 , 255 , 255) ; font-family: &amp;#34;consolas&amp;#34; ; font-size: 8.4pt&quot;&gt;全局过滤器&lt;/pre&gt;" style="rounded=0;whiteSpace=wrap;html=1;strokeColor=default;fillColor=default;" vertex="1" parent="WIyWlLk6GJQsqaUBKTNV-1">
          <mxGeometry x="593.5" y="1290" width="120" height="60" as="geometry" />
        </mxCell>
        <mxCell id="7GXC4zHPOhcXow-mvOEY-33" value="&lt;pre style=&quot;background-color: rgb(255 , 255 , 255) ; font-family: &amp;#34;consolas&amp;#34; ; font-size: 8.4pt&quot;&gt;&lt;pre style=&quot;font-family: &amp;#34;consolas&amp;#34; ; font-size: 8.4pt&quot;&gt;LoadBalancerClientFilter&lt;/pre&gt;&lt;/pre&gt;" style="rounded=0;whiteSpace=wrap;html=1;strokeColor=default;fillColor=default;" vertex="1" parent="WIyWlLk6GJQsqaUBKTNV-1">
          <mxGeometry x="430" y="1480" width="172" height="70" as="geometry" />
        </mxCell>
        <mxCell id="7GXC4zHPOhcXow-mvOEY-37" value="&lt;pre style=&quot;background-color: rgb(255 , 255 , 255) ; font-family: &amp;#34;consolas&amp;#34; ; font-size: 8.4pt&quot;&gt;&lt;pre style=&quot;font-family: &amp;#34;consolas&amp;#34; ; font-size: 8.4pt&quot;&gt;WebClientHttpRoutingFilter&lt;/pre&gt;&lt;/pre&gt;" style="rounded=0;whiteSpace=wrap;html=1;strokeColor=default;fillColor=default;" vertex="1" parent="WIyWlLk6GJQsqaUBKTNV-1">
          <mxGeometry x="635" y="1480" width="175" height="70" as="geometry" />
        </mxCell>
        <mxCell id="7GXC4zHPOhcXow-mvOEY-42" value="" style="edgeStyle=orthogonalEdgeStyle;rounded=0;orthogonalLoop=1;jettySize=auto;html=1;" edge="1" parent="WIyWlLk6GJQsqaUBKTNV-1" source="7GXC4zHPOhcXow-mvOEY-40" target="7GXC4zHPOhcXow-mvOEY-41">
          <mxGeometry relative="1" as="geometry" />
        </mxCell>
        <mxCell id="7GXC4zHPOhcXow-mvOEY-40" value="&lt;pre style=&quot;background-color: rgb(255 , 255 , 255) ; font-family: &amp;#34;consolas&amp;#34; ; font-size: 8.4pt&quot;&gt;GatewayFilterFactory&lt;/pre&gt;" style="rounded=0;whiteSpace=wrap;html=1;strokeColor=default;fillColor=default;" vertex="1" parent="WIyWlLk6GJQsqaUBKTNV-1">
          <mxGeometry x="920" y="1290" width="160" height="60" as="geometry" />
        </mxCell>
        <mxCell id="7GXC4zHPOhcXow-mvOEY-44" value="" style="edgeStyle=orthogonalEdgeStyle;rounded=0;orthogonalLoop=1;jettySize=auto;html=1;" edge="1" parent="WIyWlLk6GJQsqaUBKTNV-1" source="7GXC4zHPOhcXow-mvOEY-41" target="7GXC4zHPOhcXow-mvOEY-43">
          <mxGeometry relative="1" as="geometry" />
        </mxCell>
        <mxCell id="7GXC4zHPOhcXow-mvOEY-46" value="" style="edgeStyle=orthogonalEdgeStyle;rounded=0;orthogonalLoop=1;jettySize=auto;html=1;exitX=0.5;exitY=1;exitDx=0;exitDy=0;" edge="1" parent="WIyWlLk6GJQsqaUBKTNV-1" source="7GXC4zHPOhcXow-mvOEY-41" target="7GXC4zHPOhcXow-mvOEY-45">
          <mxGeometry relative="1" as="geometry" />
        </mxCell>
        <mxCell id="7GXC4zHPOhcXow-mvOEY-41" value="&lt;pre style=&quot;background-color: rgb(255 , 255 , 255) ; font-family: &amp;#34;consolas&amp;#34; ; font-size: 8.4pt&quot;&gt;&lt;pre style=&quot;font-family: &amp;#34;consolas&amp;#34; ; font-size: 8.4pt&quot;&gt;&lt;pre style=&quot;font-family: &amp;#34;consolas&amp;#34; ; font-size: 8.4pt&quot;&gt;AbstractGatewayFilterFactory&lt;/pre&gt;&lt;/pre&gt;&lt;/pre&gt;" style="rounded=0;whiteSpace=wrap;html=1;strokeColor=default;fillColor=default;" vertex="1" parent="WIyWlLk6GJQsqaUBKTNV-1">
          <mxGeometry x="900" y="1430" width="200" height="60" as="geometry" />
        </mxCell>
        <mxCell id="7GXC4zHPOhcXow-mvOEY-43" value="&lt;pre style=&quot;background-color: rgb(255 , 255 , 255) ; font-family: &amp;#34;consolas&amp;#34; ; font-size: 8.4pt&quot;&gt;&lt;pre style=&quot;font-family: &amp;#34;consolas&amp;#34; ; font-size: 8.4pt&quot;&gt;&lt;pre style=&quot;font-family: &amp;#34;consolas&amp;#34; ; font-size: 8.4pt&quot;&gt;&lt;pre style=&quot;font-family: &amp;#34;consolas&amp;#34; ; font-size: 8.4pt&quot;&gt;RequestRateLimiterGatewayFilterFactory&lt;/pre&gt;&lt;/pre&gt;&lt;/pre&gt;&lt;/pre&gt;" style="rounded=0;whiteSpace=wrap;html=1;strokeColor=default;fillColor=default;" vertex="1" parent="WIyWlLk6GJQsqaUBKTNV-1">
          <mxGeometry x="855" y="1580" width="290" height="70" as="geometry" />
        </mxCell>
        <mxCell id="7GXC4zHPOhcXow-mvOEY-45" value="&lt;pre style=&quot;background-color: rgb(255 , 255 , 255) ; font-family: &amp;#34;consolas&amp;#34; ; font-size: 8.4pt&quot;&gt;&lt;pre style=&quot;font-family: &amp;#34;consolas&amp;#34; ; font-size: 8.4pt&quot;&gt;&lt;pre style=&quot;font-family: &amp;#34;consolas&amp;#34; ; font-size: 8.4pt&quot;&gt;&lt;pre style=&quot;font-family: &amp;#34;consolas&amp;#34; ; font-size: 8.4pt&quot;&gt;RewriteResponseHeaderGatewayFilterFactory&lt;/pre&gt;&lt;/pre&gt;&lt;/pre&gt;&lt;/pre&gt;" style="rounded=0;whiteSpace=wrap;html=1;strokeColor=default;fillColor=default;" vertex="1" parent="WIyWlLk6GJQsqaUBKTNV-1">
          <mxGeometry x="1180" y="1580" width="290" height="70" as="geometry" />
        </mxCell>
      </root>
    </mxGraphModel>
  </diagram>
</mxfile>
